<svg xmlns="http://www.w3.org/2000/svg" xmlns:xlink="http://www.w3.org/1999/xlink" id="Layer_1" data-name="Layer 1" viewBox="0 0 580 580"><defs><mask id="mask" width="580" height="580" x="0" y="0" maskUnits="userSpaceOnUse"><g transform="translate(-40 -40)"><g id="gmask"><path fill="#fff" d="M210,40a10,10,0,1,1-10,10A10,10,0,0,1,210,40Z"/><path fill="#fff" d="M230,40a10,10,0,1,1-10,10A10,10,0,0,1,230,40Z"/><path fill="#fff" d="M250,40a10,10,0,1,1-10,10A10,10,0,0,1,250,40Z"/><path fill="#fff" d="M270,40a10,10,0,1,1-10,10A10,10,0,0,1,270,40Z"/><path fill="#fff" d="M290,40a10,10,0,1,1-10,10A10,10,0,0,1,290,40Z"/><path fill="#fff" d="M310,40a10,10,0,1,1-10,10A10,10,0,0,1,310,40Z"/><path fill="#fff" d="M330,40a10,10,0,1,1-10,10A10,10,0,0,1,330,40Z"/><path fill="#fff" d="M350,40a10,10,0,1,1-10,10A10,10,0,0,1,350,40Z"/><path fill="#fff" d="M390,40a10,10,0,1,1-10,10A10,10,0,0,1,390,40Z"/><path fill="#fff" d="M410,40a10,10,0,1,1-10,10A10,10,0,0,1,410,40Z"/><path fill="#fff" d="M430,40a10,10,0,1,1-10,10A10,10,0,0,1,430,40Z"/><path fill="#fff" d="M210,60a10,10,0,1,1-10,10A10,10,0,0,1,210,60Z"/><path fill="#fff" d="M230,60a10,10,0,1,1-10,10A10,10,0,0,1,230,60Z"/><path fill="#fff" d="M310,60a10,10,0,1,1-10,10A10,10,0,0,1,310,60Z"/><path fill="#fff" d="M370,60a10,10,0,1,1-10,10A10,10,0,0,1,370,60Z"/><path fill="#fff" d="M410,60a10,10,0,1,1-10,10A10,10,0,0,1,410,60Z"/><path fill="#fff" d="M270,80a10,10,0,1,1-10,10A10,10,0,0,1,270,80Z"/><path fill="#fff" d="M370,80a10,10,0,1,1-10,10A10,10,0,0,1,370,80Z"/><path fill="#fff" d="M410,80a10,10,0,1,1-10,10A10,10,0,0,1,410,80Z"/><path fill="#fff" d="M430,80a10,10,0,1,1-10,10A10,10,0,0,1,430,80Z"/><path fill="#fff" d="M450,80a10,10,0,1,1-10,10A10,10,0,0,1,450,80Z"/><path fill="#fff" d="M210,100a10,10,0,1,1-10,10A10,10,0,0,1,210,100Z"/><path fill="#fff" d="M270,100a10,10,0,1,1-10,10A10,10,0,0,1,270,100Z"/><path fill="#fff" d="M330,100a10,10,0,1,1-10,10A10,10,0,0,1,330,100Z"/><path fill="#fff" d="M350,100a10,10,0,1,1-10,10A10,10,0,0,1,350,100Z"/><path fill="#fff" d="M390,100a10,10,0,1,1-10,10A10,10,0,0,1,390,100Z"/><path fill="#fff" d="M410,100a10,10,0,1,1-10,10A10,10,0,0,1,410,100Z"/><path fill="#fff" d="M430,100a10,10,0,1,1-10,10A10,10,0,0,1,430,100Z"/><path fill="#fff" d="M230,120a10,10,0,1,1-10,10A10,10,0,0,1,230,120Z"/><path fill="#fff" d="M270,120a10,10,0,1,1-10,10A10,10,0,0,1,270,120Z"/><path fill="#fff" d="M290,120a10,10,0,1,1-10,10A10,10,0,0,1,290,120Z"/><path fill="#fff" d="M330,120a10,10,0,1,1-10,10A10,10,0,0,1,330,120Z"/><path fill="#fff" d="M370,120a10,10,0,1,1-10,10A10,10,0,0,1,370,120Z"/><path fill="#fff" d="M390,120a10,10,0,1,1-10,10A10,10,0,0,1,390,120Z"/><path fill="#fff" d="M410,120a10,10,0,1,1-10,10A10,10,0,0,1,410,120Z"/><path fill="#fff" d="M430,120a10,10,0,1,1-10,10A10,10,0,0,1,430,120Z"/><path fill="#fff" d="M230,140a10,10,0,1,1-10,10A10,10,0,0,1,230,140Z"/><path fill="#fff" d="M290,140a10,10,0,1,1-10,10A10,10,0,0,1,290,140Z"/><path fill="#fff" d="M310,140a10,10,0,1,1-10,10A10,10,0,0,1,310,140Z"/><path fill="#fff" d="M350,140a10,10,0,1,1-10,10A10,10,0,0,1,350,140Z"/><path fill="#fff" d="M370,140a10,10,0,1,1-10,10A10,10,0,0,1,370,140Z"/><path fill="#fff" d="M410,140a10,10,0,1,1-10,10A10,10,0,0,1,410,140Z"/><path fill="#fff" d="M430,140a10,10,0,1,1-10,10A10,10,0,0,1,430,140Z"/><path fill="#fff" d="M450,140a10,10,0,1,1-10,10A10,10,0,0,1,450,140Z"/><path fill="#fff" d="M210,160a10,10,0,1,1-10,10A10,10,0,0,1,210,160Z"/><path fill="#fff" d="M250,160a10,10,0,1,1-10,10A10,10,0,0,1,250,160Z"/><path fill="#fff" d="M290,160a10,10,0,1,1-10,10A10,10,0,0,1,290,160Z"/><path fill="#fff" d="M330,160a10,10,0,1,1-10,10A10,10,0,0,1,330,160Z"/><path fill="#fff" d="M370,160a10,10,0,1,1-10,10A10,10,0,0,1,370,160Z"/><path fill="#fff" d="M410,160a10,10,0,1,1-10,10A10,10,0,0,1,410,160Z"/><path fill="#fff" d="M450,160a10,10,0,1,1-10,10A10,10,0,0,1,450,160Z"/><path fill="#fff" d="M210,180a10,10,0,1,1-10,10A10,10,0,0,1,210,180Z"/><path fill="#fff" d="M230,180a10,10,0,1,1-10,10A10,10,0,0,1,230,180Z"/><path fill="#fff" d="M270,180a10,10,0,1,1-10,10A10,10,0,0,1,270,180Z"/><path fill="#fff" d="M290,180a10,10,0,1,1-10,10A10,10,0,0,1,290,180Z"/><path fill="#fff" d="M350,180a10,10,0,1,1-10,10A10,10,0,0,1,350,180Z"/><path fill="#fff" d="M370,180a10,10,0,1,1-10,10A10,10,0,0,1,370,180Z"/><path fill="#fff" d="M390,180a10,10,0,1,1-10,10A10,10,0,0,1,390,180Z"/><path fill="#fff" d="M430,180a10,10,0,1,1-10,10A10,10,0,0,1,430,180Z"/><path fill="#fff" d="M50,200a10,10,0,1,1-10,10A10,10,0,0,1,50,200Z"/><path fill="#fff" d="M90,200a10,10,0,1,1-10,10A10,10,0,0,1,90,200Z"/><path fill="#fff" d="M110,200a10,10,0,1,1-10,10A10,10,0,0,1,110,200Z"/><path fill="#fff" d="M150,200a10,10,0,1,1-10,10A10,10,0,0,1,150,200Z"/><path fill="#fff" d="M170,200a10,10,0,1,1-10,10A10,10,0,0,1,170,200Z"/><path fill="#fff" d="M190,200a10,10,0,1,1-10,10A10,10,0,0,1,190,200Z"/><path fill="#fff" d="M230,200a10,10,0,1,1-10,10A10,10,0,0,1,230,200Z"/><path fill="#fff" d="M270,200a10,10,0,1,1-10,10A10,10,0,0,1,270,200Z"/><path fill="#fff" d="M290,200a10,10,0,1,1-10,10A10,10,0,0,1,290,200Z"/><path fill="#fff" d="M310,200a10,10,0,1,1-10,10A10,10,0,0,1,310,200Z"/><path fill="#fff" d="M350,200a10,10,0,1,1-10,10A10,10,0,0,1,350,200Z"/><path fill="#fff" d="M390,200a10,10,0,1,1-10,10A10,10,0,0,1,390,200Z"/><path fill="#fff" d="M410,200a10,10,0,1,1-10,10A10,10,0,0,1,410,200Z"/><path fill="#fff" d="M490,200a10,10,0,1,1-10,10A10,10,0,0,1,490,200Z"/><path fill="#fff" d="M550,200a10,10,0,1,1-10,10A10,10,0,0,1,550,200Z"/><path fill="#fff" d="M590,200a10,10,0,1,1-10,10A10,10,0,0,1,590,200Z"/><path fill="#fff" d="M610,200a10,10,0,1,1-10,10A10,10,0,0,1,610,200Z"/><path fill="#fff" d="M70,220a10,10,0,1,1-10,10A10,10,0,0,1,70,220Z"/><path fill="#fff" d="M90,220a10,10,0,1,1-10,10A10,10,0,0,1,90,220Z"/><path fill="#fff" d="M110,220a10,10,0,1,1-10,10A10,10,0,0,1,110,220Z"/><path fill="#fff" d="M190,220a10,10,0,1,1-10,10A10,10,0,0,1,190,220Z"/><path fill="#fff" d="M210,220a10,10,0,1,1-10,10A10,10,0,0,1,210,220Z"/><path fill="#fff" d="M230,220a10,10,0,1,1-10,10A10,10,0,0,1,230,220Z"/><path fill="#fff" d="M250,220a10,10,0,1,1-10,10A10,10,0,0,1,250,220Z"/><path fill="#fff" d="M290,220a10,10,0,1,1-10,10A10,10,0,0,1,290,220Z"/><path fill="#fff" d="M310,220a10,10,0,1,1-10,10A10,10,0,0,1,310,220Z"/><path fill="#fff" d="M330,220a10,10,0,1,1-10,10A10,10,0,0,1,330,220Z"/><path fill="#fff" d="M350,220a10,10,0,1,1-10,10A10,10,0,0,1,350,220Z"/><path fill="#fff" d="M390,220a10,10,0,1,1-10,10A10,10,0,0,1,390,220Z"/><path fill="#fff" d="M410,220a10,10,0,1,1-10,10A10,10,0,0,1,410,220Z"/><path fill="#fff" d="M430,220a10,10,0,1,1-10,10A10,10,0,0,1,430,220Z"/><path fill="#fff" d="M450,220a10,10,0,1,1-10,10A10,10,0,0,1,450,220Z"/><path fill="#fff" d="M470,220a10,10,0,1,1-10,10A10,10,0,0,1,470,220Z"/><path fill="#fff" d="M490,220a10,10,0,1,1-10,10A10,10,0,0,1,490,220Z"/><path fill="#fff" d="M510,220a10,10,0,1,1-10,10A10,10,0,0,1,510,220Z"/><path fill="#fff" d="M530,220a10,10,0,1,1-10,10A10,10,0,0,1,530,220Z"/><path fill="#fff" d="M610,220a10,10,0,1,1-10,10A10,10,0,0,1,610,220Z"/><path fill="#fff" d="M50,240a10,10,0,1,1-10,10A10,10,0,0,1,50,240Z"/><path fill="#fff" d="M90,240a10,10,0,1,1-10,10A10,10,0,0,1,90,240Z"/><path fill="#fff" d="M130,240a10,10,0,1,1-10,10A10,10,0,0,1,130,240Z"/><path fill="#fff" d="M170,240a10,10,0,1,1-10,10A10,10,0,0,1,170,240Z"/><path fill="#fff" d="M190,240a10,10,0,1,1-10,10A10,10,0,0,1,190,240Z"/><path fill="#fff" d="M210,240a10,10,0,1,1-10,10A10,10,0,0,1,210,240Z"/><path fill="#fff" d="M230,240a10,10,0,1,1-10,10A10,10,0,0,1,230,240Z"/><path fill="#fff" d="M270,240a10,10,0,1,1-10,10A10,10,0,0,1,270,240Z"/><path fill="#fff" d="M290,240a10,10,0,1,1-10,10A10,10,0,0,1,290,240Z"/><path fill="#fff" d="M310,240a10,10,0,1,1-10,10A10,10,0,0,1,310,240Z"/><path fill="#fff" d="M370,240a10,10,0,1,1-10,10A10,10,0,0,1,370,240Z"/><path fill="#fff" d="M510,240a10,10,0,1,1-10,10A10,10,0,0,1,510,240Z"/><path fill="#fff" d="M530,240a10,10,0,1,1-10,10A10,10,0,0,1,530,240Z"/><path fill="#fff" d="M570,240a10,10,0,1,1-10,10A10,10,0,0,1,570,240Z"/><path fill="#fff" d="M590,240a10,10,0,1,1-10,10A10,10,0,0,1,590,240Z"/><path fill="#fff" d="M50,260a10,10,0,1,1-10,10A10,10,0,0,1,50,260Z"/><path fill="#fff" d="M70,260a10,10,0,1,1-10,10A10,10,0,0,1,70,260Z"/><path fill="#fff" d="M90,260a10,10,0,1,1-10,10A10,10,0,0,1,90,260Z"/><path fill="#fff" d="M210,260a10,10,0,1,1-10,10A10,10,0,0,1,210,260Z"/><path fill="#fff" d="M250,260a10,10,0,1,1-10,10A10,10,0,0,1,250,260Z"/><path fill="#fff" d="M270,260a10,10,0,1,1-10,10A10,10,0,0,1,270,260Z"/><path fill="#fff" d="M290,260a10,10,0,1,1-10,10A10,10,0,0,1,290,260Z"/><path fill="#fff" d="M370,260a10,10,0,1,1-10,10A10,10,0,0,1,370,260Z"/><path fill="#fff" d="M470,260a10,10,0,1,1-10,10A10,10,0,0,1,470,260Z"/><path fill="#fff" d="M490,260a10,10,0,1,1-10,10A10,10,0,0,1,490,260Z"/><path fill="#fff" d="M510,260a10,10,0,1,1-10,10A10,10,0,0,1,510,260Z"/><path fill="#fff" d="M530,260a10,10,0,1,1-10,10A10,10,0,0,1,530,260Z"/><path fill="#fff" d="M610,260a10,10,0,1,1-10,10A10,10,0,0,1,610,260Z"/><path fill="#fff" d="M50,280a10,10,0,1,1-10,10A10,10,0,0,1,50,280Z"/><path fill="#fff" d="M70,280a10,10,0,1,1-10,10A10,10,0,0,1,70,280Z"/><path fill="#fff" d="M110,280a10,10,0,1,1-10,10A10,10,0,0,1,110,280Z"/><path fill="#fff" d="M130,280a10,10,0,1,1-10,10A10,10,0,0,1,130,280Z"/><path fill="#fff" d="M170,280a10,10,0,1,1-10,10A10,10,0,0,1,170,280Z"/><path fill="#fff" d="M230,280a10,10,0,1,1-10,10A10,10,0,0,1,230,280Z"/><path fill="#fff" d="M330,280a10,10,0,1,1-10,10A10,10,0,0,1,330,280Z"/><path fill="#fff" d="M350,280a10,10,0,1,1-10,10A10,10,0,0,1,350,280Z"/><path fill="#fff" d="M390,280a10,10,0,1,1-10,10A10,10,0,0,1,390,280Z"/><path fill="#fff" d="M410,280a10,10,0,1,1-10,10A10,10,0,0,1,410,280Z"/><path fill="#fff" d="M550,280a10,10,0,1,1-10,10A10,10,0,0,1,550,280Z"/><path fill="#fff" d="M570,280a10,10,0,1,1-10,10A10,10,0,0,1,570,280Z"/><path fill="#fff" d="M50,300a10,10,0,1,1-10,10A10,10,0,0,1,50,300Z"/><path fill="#fff" d="M90,300a10,10,0,1,1-10,10A10,10,0,0,1,90,300Z"/><path fill="#fff" d="M110,300a10,10,0,1,1-10,10A10,10,0,0,1,110,300Z"/><path fill="#fff" d="M130,300a10,10,0,1,1-10,10A10,10,0,0,1,130,300Z"/><path fill="#fff" d="M150,300a10,10,0,1,1-10,10A10,10,0,0,1,150,300Z"/><path fill="#fff" d="M210,300a10,10,0,1,1-10,10A10,10,0,0,1,210,300Z"/><path fill="#fff" d="M250,300a10,10,0,1,1-10,10A10,10,0,0,1,250,300Z"/><path fill="#fff" d="M330,300a10,10,0,1,1-10,10A10,10,0,0,1,330,300Z"/><path fill="#fff" d="M370,300a10,10,0,1,1-10,10A10,10,0,0,1,370,300Z"/><path fill="#fff" d="M390,300a10,10,0,1,1-10,10A10,10,0,0,1,390,300Z"/><path fill="#fff" d="M410,300a10,10,0,1,1-10,10A10,10,0,0,1,410,300Z"/><path fill="#fff" d="M430,300a10,10,0,1,1-10,10A10,10,0,0,1,430,300Z"/><path fill="#fff" d="M490,300a10,10,0,1,1-10,10A10,10,0,0,1,490,300Z"/><path fill="#fff" d="M510,300a10,10,0,1,1-10,10A10,10,0,0,1,510,300Z"/><path fill="#fff" d="M570,300a10,10,0,1,1-10,10A10,10,0,0,1,570,300Z"/><path fill="#fff" d="M590,300a10,10,0,1,1-10,10A10,10,0,0,1,590,300Z"/><path fill="#fff" d="M610,300a10,10,0,1,1-10,10A10,10,0,0,1,610,300Z"/><path fill="#fff" d="M50,320a10,10,0,1,1-10,10A10,10,0,0,1,50,320Z"/><path fill="#fff" d="M110,320a10,10,0,1,1-10,10A10,10,0,0,1,110,320Z"/><path fill="#fff" d="M170,320a10,10,0,1,1-10,10A10,10,0,0,1,170,320Z"/><path fill="#fff" d="M210,320a10,10,0,1,1-10,10A10,10,0,0,1,210,320Z"/><path fill="#fff" d="M270,320a10,10,0,1,1-10,10A10,10,0,0,1,270,320Z"/><path fill="#fff" d="M310,320a10,10,0,1,1-10,10A10,10,0,0,1,310,320Z"/><path fill="#fff" d="M350,320a10,10,0,1,1-10,10A10,10,0,0,1,350,320Z"/><path fill="#fff" d="M370,320a10,10,0,1,1-10,10A10,10,0,0,1,370,320Z"/><path fill="#fff" d="M430,320a10,10,0,1,1-10,10A10,10,0,0,1,430,320Z"/><path fill="#fff" d="M470,320a10,10,0,1,1-10,10A10,10,0,0,1,470,320Z"/><path fill="#fff" d="M490,320a10,10,0,1,1-10,10A10,10,0,0,1,490,320Z"/><path fill="#fff" d="M570,320a10,10,0,1,1-10,10A10,10,0,0,1,570,320Z"/><path fill="#fff" d="M590,320a10,10,0,1,1-10,10A10,10,0,0,1,590,320Z"/><path fill="#fff" d="M610,320a10,10,0,1,1-10,10A10,10,0,0,1,610,320Z"/><path fill="#fff" d="M130,340a10,10,0,1,1-10,10A10,10,0,0,1,130,340Z"/><path fill="#fff" d="M150,340a10,10,0,1,1-10,10A10,10,0,0,1,150,340Z"/><path fill="#fff" d="M190,340a10,10,0,1,1-10,10A10,10,0,0,1,190,340Z"/><path fill="#fff" d="M210,340a10,10,0,1,1-10,10A10,10,0,0,1,210,340Z"/><path fill="#fff" d="M290,340a10,10,0,1,1-10,10A10,10,0,0,1,290,340Z"/><path fill="#fff" d="M330,340a10,10,0,1,1-10,10A10,10,0,0,1,330,340Z"/><path fill="#fff" d="M370,340a10,10,0,1,1-10,10A10,10,0,0,1,370,340Z"/><path fill="#fff" d="M430,340a10,10,0,1,1-10,10A10,10,0,0,1,430,340Z"/><path fill="#fff" d="M450,340a10,10,0,1,1-10,10A10,10,0,0,1,450,340Z"/><path fill="#fff" d="M470,340a10,10,0,1,1-10,10A10,10,0,0,1,470,340Z"/><path fill="#fff" d="M530,340a10,10,0,1,1-10,10A10,10,0,0,1,530,340Z"/><path fill="#fff" d="M590,340a10,10,0,1,1-10,10A10,10,0,0,1,590,340Z"/><path fill="#fff" d="M50,360a10,10,0,1,1-10,10A10,10,0,0,1,50,360Z"/><path fill="#fff" d="M90,360a10,10,0,1,1-10,10A10,10,0,0,1,90,360Z"/><path fill="#fff" d="M110,360a10,10,0,1,1-10,10A10,10,0,0,1,110,360Z"/><path fill="#fff" d="M170,360a10,10,0,1,1-10,10A10,10,0,0,1,170,360Z"/><path fill="#fff" d="M190,360a10,10,0,1,1-10,10A10,10,0,0,1,190,360Z"/><path fill="#fff" d="M230,360a10,10,0,1,1-10,10A10,10,0,0,1,230,360Z"/><path fill="#fff" d="M250,360a10,10,0,1,1-10,10A10,10,0,0,1,250,360Z"/><path fill="#fff" d="M270,360a10,10,0,1,1-10,10A10,10,0,0,1,270,360Z"/><path fill="#fff" d="M330,360a10,10,0,1,1-10,10A10,10,0,0,1,330,360Z"/><path fill="#fff" d="M350,360a10,10,0,1,1-10,10A10,10,0,0,1,350,360Z"/><path fill="#fff" d="M370,360a10,10,0,1,1-10,10A10,10,0,0,1,370,360Z"/><path fill="#fff" d="M430,360a10,10,0,1,1-10,10A10,10,0,0,1,430,360Z"/><path fill="#fff" d="M450,360a10,10,0,1,1-10,10A10,10,0,0,1,450,360Z"/><path fill="#fff" d="M470,360a10,10,0,1,1-10,10A10,10,0,0,1,470,360Z"/><path fill="#fff" d="M530,360a10,10,0,1,1-10,10A10,10,0,0,1,530,360Z"/><path fill="#fff" d="M550,360a10,10,0,1,1-10,10A10,10,0,0,1,550,360Z"/><path fill="#fff" d="M590,360a10,10,0,1,1-10,10A10,10,0,0,1,590,360Z"/><path fill="#fff" d="M70,380a10,10,0,1,1-10,10A10,10,0,0,1,70,380Z"/><path fill="#fff" d="M90,380a10,10,0,1,1-10,10A10,10,0,0,1,90,380Z"/><path fill="#fff" d="M110,380a10,10,0,1,1-10,10A10,10,0,0,1,110,380Z"/><path fill="#fff" d="M190,380a10,10,0,1,1-10,10A10,10,0,0,1,190,380Z"/><path fill="#fff" d="M230,380a10,10,0,1,1-10,10A10,10,0,0,1,230,380Z"/><path fill="#fff" d="M270,380a10,10,0,1,1-10,10A10,10,0,0,1,270,380Z"/><path fill="#fff" d="M290,380a10,10,0,1,1-10,10A10,10,0,0,1,290,380Z"/><path fill="#fff" d="M330,380a10,10,0,1,1-10,10A10,10,0,0,1,330,380Z"/><path fill="#fff" d="M370,380a10,10,0,1,1-10,10A10,10,0,0,1,370,380Z"/><path fill="#fff" d="M410,380a10,10,0,1,1-10,10A10,10,0,0,1,410,380Z"/><path fill="#fff" d="M510,380a10,10,0,1,1-10,10A10,10,0,0,1,510,380Z"/><path fill="#fff" d="M550,380a10,10,0,1,1-10,10A10,10,0,0,1,550,380Z"/><path fill="#fff" d="M570,380a10,10,0,1,1-10,10A10,10,0,0,1,570,380Z"/><path fill="#fff" d="M590,380a10,10,0,1,1-10,10A10,10,0,0,1,590,380Z"/><path fill="#fff" d="M50,400a10,10,0,1,1-10,10A10,10,0,0,1,50,400Z"/><path fill="#fff" d="M150,400a10,10,0,1,1-10,10A10,10,0,0,1,150,400Z"/><path fill="#fff" d="M170,400a10,10,0,1,1-10,10A10,10,0,0,1,170,400Z"/><path fill="#fff" d="M190,400a10,10,0,1,1-10,10A10,10,0,0,1,190,400Z"/><path fill="#fff" d="M210,400a10,10,0,1,1-10,10A10,10,0,0,1,210,400Z"/><path fill="#fff" d="M270,400a10,10,0,1,1-10,10A10,10,0,0,1,270,400Z"/><path fill="#fff" d="M310,400a10,10,0,1,1-10,10A10,10,0,0,1,310,400Z"/><path fill="#fff" d="M330,400a10,10,0,1,1-10,10A10,10,0,0,1,330,400Z"/><path fill="#fff" d="M350,400a10,10,0,1,1-10,10A10,10,0,0,1,350,400Z"/><path fill="#fff" d="M370,400a10,10,0,1,1-10,10A10,10,0,0,1,370,400Z"/><path fill="#fff" d="M470,400a10,10,0,1,1-10,10A10,10,0,0,1,470,400Z"/><path fill="#fff" d="M490,400a10,10,0,1,1-10,10A10,10,0,0,1,490,400Z"/><path fill="#fff" d="M530,400a10,10,0,1,1-10,10A10,10,0,0,1,530,400Z"/><path fill="#fff" d="M570,400a10,10,0,1,1-10,10A10,10,0,0,1,570,400Z"/><path fill="#fff" d="M90,420a10,10,0,1,1-10,10A10,10,0,0,1,90,420Z"/><path fill="#fff" d="M150,420a10,10,0,1,1-10,10A10,10,0,0,1,150,420Z"/><path fill="#fff" d="M210,420a10,10,0,1,1-10,10A10,10,0,0,1,210,420Z"/><path fill="#fff" d="M230,420a10,10,0,1,1-10,10A10,10,0,0,1,230,420Z"/><path fill="#fff" d="M270,420a10,10,0,1,1-10,10A10,10,0,0,1,270,420Z"/><path fill="#fff" d="M310,420a10,10,0,1,1-10,10A10,10,0,0,1,310,420Z"/><path fill="#fff" d="M330,420a10,10,0,1,1-10,10A10,10,0,0,1,330,420Z"/><path fill="#fff" d="M390,420a10,10,0,1,1-10,10A10,10,0,0,1,390,420Z"/><path fill="#fff" d="M490,420a10,10,0,1,1-10,10A10,10,0,0,1,490,420Z"/><path fill="#fff" d="M510,420a10,10,0,1,1-10,10A10,10,0,0,1,510,420Z"/><path fill="#fff" d="M570,420a10,10,0,1,1-10,10A10,10,0,0,1,570,420Z"/><path fill="#fff" d="M70,440a10,10,0,1,1-10,10A10,10,0,0,1,70,440Z"/><path fill="#fff" d="M130,440a10,10,0,1,1-10,10A10,10,0,0,1,130,440Z"/><path fill="#fff" d="M150,440a10,10,0,1,1-10,10A10,10,0,0,1,150,440Z"/><path fill="#fff" d="M170,440a10,10,0,1,1-10,10A10,10,0,0,1,170,440Z"/><path fill="#fff" d="M230,440a10,10,0,1,1-10,10A10,10,0,0,1,230,440Z"/><path fill="#fff" d="M310,440a10,10,0,1,1-10,10A10,10,0,0,1,310,440Z"/><path fill="#fff" d="M330,440a10,10,0,1,1-10,10A10,10,0,0,1,330,440Z"/><path fill="#fff" d="M370,440a10,10,0,1,1-10,10A10,10,0,0,1,370,440Z"/><path fill="#fff" d="M390,440a10,10,0,1,1-10,10A10,10,0,0,1,390,440Z"/><path fill="#fff" d="M410,440a10,10,0,1,1-10,10A10,10,0,0,1,410,440Z"/><path fill="#fff" d="M430,440a10,10,0,1,1-10,10A10,10,0,0,1,430,440Z"/><path fill="#fff" d="M450,440a10,10,0,1,1-10,10A10,10,0,0,1,450,440Z"/><path fill="#fff" d="M470,440a10,10,0,1,1-10,10A10,10,0,0,1,470,440Z"/><path fill="#fff" d="M490,440a10,10,0,1,1-10,10A10,10,0,0,1,490,440Z"/><path fill="#fff" d="M510,440a10,10,0,1,1-10,10A10,10,0,0,1,510,440Z"/><path fill="#fff" d="M530,440a10,10,0,1,1-10,10A10,10,0,0,1,530,440Z"/><path fill="#fff" d="M550,440a10,10,0,1,1-10,10A10,10,0,0,1,550,440Z"/><path fill="#fff" d="M570,440a10,10,0,1,1-10,10A10,10,0,0,1,570,440Z"/><path fill="#fff" d="M210,460a10,10,0,1,1-10,10A10,10,0,0,1,210,460Z"/><path fill="#fff" d="M230,460a10,10,0,1,1-10,10A10,10,0,0,1,230,460Z"/><path fill="#fff" d="M250,460a10,10,0,1,1-10,10A10,10,0,0,1,250,460Z"/><path fill="#fff" d="M290,460a10,10,0,1,1-10,10A10,10,0,0,1,290,460Z"/><path fill="#fff" d="M350,460a10,10,0,1,1-10,10A10,10,0,0,1,350,460Z"/><path fill="#fff" d="M370,460a10,10,0,1,1-10,10A10,10,0,0,1,370,460Z"/><path fill="#fff" d="M390,460a10,10,0,1,1-10,10A10,10,0,0,1,390,460Z"/><path fill="#fff" d="M410,460a10,10,0,1,1-10,10A10,10,0,0,1,410,460Z"/><path fill="#fff" d="M430,460a10,10,0,1,1-10,10A10,10,0,0,1,430,460Z"/><path fill="#fff" d="M450,460a10,10,0,1,1-10,10A10,10,0,0,1,450,460Z"/><path fill="#fff" d="M530,460a10,10,0,1,1-10,10A10,10,0,0,1,530,460Z"/><path fill="#fff" d="M550,460a10,10,0,1,1-10,10A10,10,0,0,1,550,460Z"/><path fill="#fff" d="M570,460a10,10,0,1,1-10,10A10,10,0,0,1,570,460Z"/><path fill="#fff" d="M590,460a10,10,0,1,1-10,10A10,10,0,0,1,590,460Z"/><path fill="#fff" d="M610,460a10,10,0,1,1-10,10A10,10,0,0,1,610,460Z"/><path fill="#fff" d="M210,480a10,10,0,1,1-10,10A10,10,0,0,1,210,480Z"/><path fill="#fff" d="M290,480a10,10,0,1,1-10,10A10,10,0,0,1,290,480Z"/><path fill="#fff" d="M330,480a10,10,0,1,1-10,10A10,10,0,0,1,330,480Z"/><path fill="#fff" d="M350,480a10,10,0,1,1-10,10A10,10,0,0,1,350,480Z"/><path fill="#fff" d="M430,480a10,10,0,1,1-10,10A10,10,0,0,1,430,480Z"/><path fill="#fff" d="M450,480a10,10,0,1,1-10,10A10,10,0,0,1,450,480Z"/><path fill="#fff" d="M490,480a10,10,0,1,1-10,10A10,10,0,0,1,490,480Z"/><path fill="#fff" d="M530,480a10,10,0,1,1-10,10A10,10,0,0,1,530,480Z"/><path fill="#fff" d="M550,480a10,10,0,1,1-10,10A10,10,0,0,1,550,480Z"/><path fill="#fff" d="M590,480a10,10,0,1,1-10,10A10,10,0,0,1,590,480Z"/><path fill="#fff" d="M210,500a10,10,0,1,1-10,10A10,10,0,0,1,210,500Z"/><path fill="#fff" d="M230,500a10,10,0,1,1-10,10A10,10,0,0,1,230,500Z"/><path fill="#fff" d="M250,500a10,10,0,1,1-10,10A10,10,0,0,1,250,500Z"/><path fill="#fff" d="M270,500a10,10,0,1,1-10,10A10,10,0,0,1,270,500Z"/><path fill="#fff" d="M290,500a10,10,0,1,1-10,10A10,10,0,0,1,290,500Z"/><path fill="#fff" d="M310,500a10,10,0,1,1-10,10A10,10,0,0,1,310,500Z"/><path fill="#fff" d="M330,500a10,10,0,1,1-10,10A10,10,0,0,1,330,500Z"/><path fill="#fff" d="M350,500a10,10,0,1,1-10,10A10,10,0,0,1,350,500Z"/><path fill="#fff" d="M450,500a10,10,0,1,1-10,10A10,10,0,0,1,450,500Z"/><path fill="#fff" d="M530,500a10,10,0,1,1-10,10A10,10,0,0,1,530,500Z"/><path fill="#fff" d="M550,500a10,10,0,1,1-10,10A10,10,0,0,1,550,500Z"/><path fill="#fff" d="M270,520a10,10,0,1,1-10,10A10,10,0,0,1,270,520Z"/><path fill="#fff" d="M390,520a10,10,0,1,1-10,10A10,10,0,0,1,390,520Z"/><path fill="#fff" d="M410,520a10,10,0,1,1-10,10A10,10,0,0,1,410,520Z"/><path fill="#fff" d="M450,520a10,10,0,1,1-10,10A10,10,0,0,1,450,520Z"/><path fill="#fff" d="M470,520a10,10,0,1,1-10,10A10,10,0,0,1,470,520Z"/><path fill="#fff" d="M490,520a10,10,0,1,1-10,10A10,10,0,0,1,490,520Z"/><path fill="#fff" d="M510,520a10,10,0,1,1-10,10A10,10,0,0,1,510,520Z"/><path fill="#fff" d="M530,520a10,10,0,1,1-10,10A10,10,0,0,1,530,520Z"/><path fill="#fff" d="M570,520a10,10,0,1,1-10,10A10,10,0,0,1,570,520Z"/><path fill="#fff" d="M610,520a10,10,0,1,1-10,10A10,10,0,0,1,610,520Z"/><path fill="#fff" d="M210,540a10,10,0,1,1-10,10A10,10,0,0,1,210,540Z"/><path fill="#fff" d="M250,540a10,10,0,1,1-10,10A10,10,0,0,1,250,540Z"/><path fill="#fff" d="M290,540a10,10,0,1,1-10,10A10,10,0,0,1,290,540Z"/><path fill="#fff" d="M310,540a10,10,0,1,1-10,10A10,10,0,0,1,310,540Z"/><path fill="#fff" d="M410,540a10,10,0,1,1-10,10A10,10,0,0,1,410,540Z"/><path fill="#fff" d="M430,540a10,10,0,1,1-10,10A10,10,0,0,1,430,540Z"/><path fill="#fff" d="M470,540a10,10,0,1,1-10,10A10,10,0,0,1,470,540Z"/><path fill="#fff" d="M530,540a10,10,0,1,1-10,10A10,10,0,0,1,530,540Z"/><path fill="#fff" d="M550,540a10,10,0,1,1-10,10A10,10,0,0,1,550,540Z"/><path fill="#fff" d="M590,540a10,10,0,1,1-10,10A10,10,0,0,1,590,540Z"/><path fill="#fff" d="M210,560a10,10,0,1,1-10,10A10,10,0,0,1,210,560Z"/><path fill="#fff" d="M250,560a10,10,0,1,1-10,10A10,10,0,0,1,250,560Z"/><path fill="#fff" d="M270,560a10,10,0,1,1-10,10A10,10,0,0,1,270,560Z"/><path fill="#fff" d="M290,560a10,10,0,1,1-10,10A10,10,0,0,1,290,560Z"/><path fill="#fff" d="M310,560a10,10,0,1,1-10,10A10,10,0,0,1,310,560Z"/><path fill="#fff" d="M330,560a10,10,0,1,1-10,10A10,10,0,0,1,330,560Z"/><path fill="#fff" d="M370,560a10,10,0,1,1-10,10A10,10,0,0,1,370,560Z"/><path fill="#fff" d="M430,560a10,10,0,1,1-10,10A10,10,0,0,1,430,560Z"/><path fill="#fff" d="M470,560a10,10,0,1,1-10,10A10,10,0,0,1,470,560Z"/><path fill="#fff" d="M510,560a10,10,0,1,1-10,10A10,10,0,0,1,510,560Z"/><path fill="#fff" d="M570,560a10,10,0,1,1-10,10A10,10,0,0,1,570,560Z"/><path fill="#fff" d="M610,560a10,10,0,1,1-10,10A10,10,0,0,1,610,560Z"/><path fill="#fff" d="M270,580a10,10,0,1,1-10,10A10,10,0,0,1,270,580Z"/><path fill="#fff" d="M310,580a10,10,0,1,1-10,10A10,10,0,0,1,310,580Z"/><path fill="#fff" d="M370,580a10,10,0,1,1-10,10A10,10,0,0,1,370,580Z"/><path fill="#fff" d="M430,580a10,10,0,1,1-10,10A10,10,0,0,1,430,580Z"/><path fill="#fff" d="M450,580a10,10,0,1,1-10,10A10,10,0,0,1,450,580Z"/><path fill="#fff" d="M510,580a10,10,0,1,1-10,10A10,10,0,0,1,510,580Z"/><path fill="#fff" d="M530,580a10,10,0,1,1-10,10A10,10,0,0,1,530,580Z"/><path fill="#fff" d="M550,580a10,10,0,1,1-10,10A10,10,0,0,1,550,580Z"/><path fill="#fff" d="M590,580a10,10,0,1,1-10,10A10,10,0,0,1,590,580Z"/><path fill="#fff" d="M210,600a10,10,0,1,1-10,10A10,10,0,0,1,210,600Z"/><path fill="#fff" d="M270,600a10,10,0,1,1-10,10A10,10,0,0,1,270,600Z"/><path fill="#fff" d="M330,600a10,10,0,1,1-10,10A10,10,0,0,1,330,600Z"/><path fill="#fff" d="M410,600a10,10,0,1,1-10,10A10,10,0,0,1,410,600Z"/><path fill="#fff" d="M430,600a10,10,0,1,1-10,10A10,10,0,0,1,430,600Z"/><path fill="#fff" d="M450,600a10,10,0,1,1-10,10A10,10,0,0,1,450,600Z"/><path fill="#fff" d="M470,600a10,10,0,1,1-10,10A10,10,0,0,1,470,600Z"/><path fill="#fff" d="M510,600a10,10,0,1,1-10,10A10,10,0,0,1,510,600Z"/><path fill="#fff" d="M590,600a10,10,0,1,1-10,10A10,10,0,0,1,590,600Z"/><rect width="98" height="98" x="61" y="61" fill="none"/><path fill="#fff" d="M159,40H40V180H180V40Zm0,119H61V61h98Z"/><rect width="98" height="98" x="501" y="61" fill="none"/><path fill="#fff" d="M599,40H480V180H620V40Zm0,119H501V61h98Z"/><rect width="98" height="98" x="61" y="501" fill="none"/><path fill="#fff" d="M159,480H40V620H180V480Zm0,119H61V501h98Z"/><rect width="60" height="60" x="80" y="80" fill="#fff"/><rect width="60" height="60" x="520" y="80" fill="#fff"/><rect width="60" height="60" x="80" y="520" fill="#fff"/></g></g></mask><linearGradient id="linear-gradient" x1="24.11" x2="25.11" y1="727.46" y2="727.46" gradientTransform="matrix(0, 580, 580, 0, -421636, -13985)" gradientUnits="userSpaceOnUse"><stop offset=".05" stop-color="#1d1133"/><stop offset=".95" stop-color="#123474"/></linearGradient></defs><title>mobile-qr-gradient</title><g mask="url(#mask)"><rect width="580" height="580" fill="url(#linear-gradient)"/></g></svg>